<svg xmlns="http://www.w3.org/2000/svg" class="svg-icon" style="width:1em;height:1em;vertical-align:middle;fill:currentColor;overflow:hidden" viewBox="95.8 85.97 832.38 852.05">
  <path d="M512 661.995q61.995 0 106.005-44.011t44.011-106.005-44.01-106.006T512 361.963t-106.005 44.01-44.011 106.006 44.01 106.005T512 661.994m317.995-107.99L920 624q13.995 10.005 4.01 28.01l-85.994 148.011q-8 13.995-26.005 8l-106.006-42.005q-42.005 29.995-72 42.005l-16 112q-4.01 18.006-20.01 18.006H425.984q-16 0-20.01-18.006l-16-112q-37.995-16-72-42.005l-106.006 42.005q-18.005 5.995-26.005-8l-85.995-148.01q-10.005-18.006 4.01-28.011l90.006-69.995q-2.005-13.994-2.005-42.005t2.005-42.005L103.979 400q-13.995-10.005-4.011-28.01l85.995-148.011q8-13.995 26.005-8l106.005 42.005q42.006-29.995 72-42.005l16-112q4.011-18.006 20.011-18.006h172.01q16 0 20.011 18.006l16 112q37.995 16 72 42.005l106.006-42.005q18.005-5.995 26.005 8l85.995 148.01Q934.016 389.995 920 400l-90.005 69.995Q832 483.989 832 512t-2.005 42.005"/>
</svg>
