<svg xmlns="http://www.w3.org/2000/svg" shape-rendering="geometricPrecision" text-rendering="geometricPrecision" image-rendering="optimizeQuality" fill-rule="evenodd" clip-rule="evenodd" viewBox="200.32 129.37 111.36 253.25">
  <path fill-rule="nonzero" d="M245.971 160.379q0-6.478 2.282-11.988c1.515-3.66 3.797-6.994 6.836-9.98 3.028-2.98 6.341-5.241 9.916-6.758 3.593-1.511 7.463-2.282 11.603-2.282 4.143 0 8.006.771 11.564 2.278q5.34 2.282 9.808 6.779c2.976 2.987 5.212 6.31 6.695 9.973 1.489 3.663 2.236 7.659 2.236 11.978 0 4.195-.739 8.128-2.229 11.767-1.483 3.631-3.709 6.993-6.692 10.046-2.965 3.043-6.232 5.342-9.79 6.878-3.569 1.528-7.432 2.306-11.592 2.306-4.259 0-8.206-.764-11.834-2.278-3.604-1.522-6.913-3.807-9.892-6.832-2.973-3.046-5.209-6.383-6.685-10.032q-2.228-5.468-2.226-11.855m13.492 179.381c-1.118 4.002-3.375 11.837 3.316 11.837 1.451 0 3.299-.81 5.5-2.412 2.387-1.721 5.125-4.336 8.192-7.799q4.676-5.296 9.731-12.507c3.358-4.795 6.888-10.292 10.561-16.419a1.39 1.39 0 0 1 1.907-.484l12.451 9.237c.593.434.729 1.262.34 1.878-5.724 9.952-11.512 18.642-17.362 26.056-5.899 7.466-11.879 13.66-17.936 18.553l-.095.07q-9.086 7.363-18.634 11.077c-17.713 6.86-45.682 5.742-53.691-14.929-5.062-13.054-.897-27.885 3.085-40.651l20.089-60.852c1.286-4.617 2.912-9.682 3.505-14.439.974-7.915-2.52-13.032-11.147-13.032h-17.562a1.403 1.403 0 0 1-1.395-1.399l.077-.484 4.617-16.801a1.39 1.39 0 0 1 1.356-1.02l89.743-2.815a1.39 1.39 0 0 1 1.434 1.34l-.063.445z"/>
</svg>
