<svg xmlns="http://www.w3.org/2000/svg" viewBox="-7.82 -31.83 96.75 96.75">
  <path d="M40.552-31.828c-27.412 0-48.373 20.961-48.373 48.372S13.14 64.918 40.552 64.918s48.373-20.963 48.373-48.374-20.962-48.372-48.373-48.372M-1.372 16.544c0-10.784 3.53-20.285 9.582-27.504l59.846 59.846c-7.219 6.052-16.72 9.582-27.504 9.582-24.187 0-41.924-17.737-41.924-41.924M72.894 44.05 13.048-15.798c7.219-6.053 16.718-9.579 27.504-9.579 24.185 0 41.922 17.735 41.922 41.921 0 10.785-3.527 20.287-9.58 27.506" style="fill:#fff;transform-origin:40.552px 16.545px" transform="rotate(180 0 0)"/>
  <path style="fill:#fff" d="M7.19 285.055a1.28 1.28 0 0 0-1.226.752l-.03.084a1.37 1.37 0 0 0 .376 1.358.204.204 0 0 1-.062.337 8.3 8.3 0 0 1-1.414.444 4.35 4.35 0 0 0-2.842 2.524 3.6 3.6 0 0 0-.287 2.122.2.2 0 0 1-.027.14 10.6 10.6 0 0 1-.884 1.242 1.156 1.156 0 0 0 .195 1.66 1.7 1.7 0 0 0 1.031.34 17 17 0 0 0 1.943.188h2.071a.132.132 0 0 0 0-.264H3.963a6.6 6.6 0 0 1-1.295-.182 2.26 2.26 0 0 1-1.061-.465.58.58 0 0 1-.153-.718 1.55 1.55 0 0 1 .55-.6.204.204 0 0 1 .268.045 2.02 2.02 0 0 0 1.573.75h3.328a.107.107 0 0 0 .1-.143.96.96 0 0 0-.903-.628h-.051a.058.058 0 0 1-.033-.105 3.03 3.03 0 0 0 1.22-1.974.29.29 0 0 1 .424-.208 2.5 2.5 0 0 0 .875.287h.89a.12.12 0 0 1 .105.066.46.46 0 0 0 .231.222.29.29 0 0 0 .318-.201.594.594 0 0 0-.49-.604h-.21a.6.6 0 0 1-.25-.058 1 1 0 0 1-.135-.076.102.102 0 0 1 .022-.182 1.7 1.7 0 0 0 .43-.224.29.29 0 0 1 .406.07.46.46 0 0 0 .194.16.29.29 0 0 0 .317-.201.594.594 0 0 0-.489-.604H9.6a.6.6 0 0 1-.273-.068 2.8 2.8 0 0 1-.587-.42.26.26 0 0 1-.08-.214 2.5 2.5 0 0 1 .144-.61.87.87 0 0 1 .652-.547 3.61 3.61 0 0 0 2.696-2.229.29.29 0 0 0-.27-.394H8.486a.2.2 0 0 1-.186-.12 1.28 1.28 0 0 0-1.11-.752m2.793 1.46a.21.21 0 0 1 .205.217.208.208 0 1 1-.416 0 .21.21 0 0 1 .21-.217" transform="translate(6.229 -1598.307)scale(5.55971)"/>
</svg>
